<?xml version="1.0" encoding="UTF-8"?>
<svg width="117px" height="141px" viewBox="0 0 117 141" version="1.1" xmlns="http://www.w3.org/2000/svg" xmlns:xlink="http://www.w3.org/1999/xlink">
    <g id="alin" stroke="none" stroke-width="1" fill="none" fill-rule="evenodd">
        <g transform="translate(17.000000, -0.000000)" fill="#28211C">
            <g id="Group" fill-rule="nonzero">
                <path d="M53.4590429,0 C52.7394287,2.25944593 51.4971929,4.14735214 50.3519001,6.21428571 C65.2481644,6.21428571 80.8354572,9.17073214 91.9851287,19.9106336 C94.9449929,22.7614993 100.409836,28.3544186 99.7411787,32.9357143 C99.1097745,37.2607786 95.9513905,39.6221222 92.6562254,41.856801 L92.0561293,42.2621194 C91.9560395,42.3295762 91.855957,42.3970189 91.7559485,42.4644986 L91.1573167,42.8702305 C89.2678287,44.1590457 87.4530501,45.4981414 86.1691787,47.2381414 C83.0037062,51.5292173 82.3235556,56.5084222 81.7687478,61.519313 L81.6090573,62.9743831 C81.4307832,64.5907946 81.2417868,66.2038929 80.9628501,67.7916429 C79.5348072,75.9224143 80.6975001,85.6807071 81.5295929,93.8357143 C81.8272572,96.7564286 83.2807787,99.5938714 83.0831644,102.535714 C82.2088144,115.546564 71.4195715,126.266829 61.5376144,133.510821 C57.3653429,136.569493 52.4740787,139.577829 47.2447572,140.312979 C33.2688287,142.278557 22.5348929,135.027729 13.0666829,125.528571 C7.95406579,120.3993 3.07771579,114.139029 1.54048794,106.885714 C0.00642936473,99.6473143 2.56379436,91.8726214 3.06771079,84.5142857 C3.68845579,75.4495071 2.35424865,66.6886071 1.79365794,57.7928571 C1.54378151,53.8270864 0.21535365,49.9696307 0.040670079,45.9857143 C-0.375065635,36.5060079 2.43509651,27.6704743 6.70039579,19.2642857 C9.09786722,14.5391914 12.1567872,9.24511714 17.4161858,7.45714286 C17.4224001,9.79533 17.6106929,11.9932607 18.0376144,14.2928571 C22.2024287,11.359155 25.4599572,7.34056286 29.8447572,4.64008286 C36.6984929,0.419060357 45.5805715,0.0216940714 53.4590429,0 Z M42,93 C39.2539071,93.1385786 35.3365714,94.7043214 33,96 C31.3340467,96.9241333 29.6794371,98.1335639 28.0026345,99.3653309 L27.2825483,99.8938319 C23.7946189,102.447452 20.1909058,104.935727 16.1733287,105.021429 C17.4733572,108.707743 19.5358787,110.462657 23.6304715,109.859871 C30.1312358,108.902871 35.2487001,101.853386 41.6519001,101.491093 C43.7162858,101.374264 45.5358287,102.530743 47.2447572,103.532486 C48.6726509,104.369326 50.3731897,105.457013 52.1868198,106.490914 L52.6424911,106.748093 C52.7187982,106.79071 52.7952786,106.83319 52.8719207,106.875511 L53.3336214,107.127344 C58.8178579,110.080555 65.000929,112.007616 67.7519001,105.021429 C63.4535051,104.932075 60.4187353,102.358994 57.2372731,99.7448004 L56.6192957,99.23897 C55.1713071,98.0605624 53.6748426,96.9059106 52,96 C49.6889071,94.7503071 44.7566571,92.8608 42,93 Z M41.6898072,66.8321571 C39.9361358,66.9750857 39.1568644,68.8151357 38.5876358,70.2245357 C37.2316787,73.5796286 36.5549429,77.1882643 34.3258787,80.1375643 C28.5963072,87.7165071 16.5351865,85.8000214 9.33761436,82.0285714 C10.0639401,84.2421 10.7349587,86.9726571 12.6538058,88.48335 C13.9641501,89.5143 16.0796172,89.1955071 16.8585158,90.8764714 C18.3582715,94.1128714 15.7039015,100.238293 15.5519001,103.778571 C22.7368572,101.10705 23.2601001,94.1694214 28.6286215,89.6590929 C33.0923429,85.9087714 37.3764715,88.9630929 42.2733287,88.6766143 C46.0820644,88.4535214 49.6633572,86.5712143 53.4565572,88.4404714 C60.0517787,91.6899214 59.9473787,101.582443 67.7519001,103.157143 C67.7382287,98.30565 66.2492858,93.6809786 67.1304715,88.8642857 C71.476517,89.760623 72.8014694,86.7164685 74.1044503,83.2956135 L74.2640931,82.8750929 C74.3707204,82.5938138 74.478017,82.3109938 74.5876144,82.0285714 C67.1553287,85.2935571 56.1659858,88.0241143 49.9417572,80.7589929 C48.341967,78.8912116 47.4939598,76.6265414 46.7177445,74.3275834 L46.4094755,73.407031 C46.0505344,72.3329253 45.6874831,71.2618812 45.2512144,70.23075 C44.6067929,68.7076286 43.6920501,66.6687214 41.6898072,66.8321571 Z M13.6876144,61.1908286 C5.34847794,62.8084071 6.77863365,74.1171643 10.9837165,79.4751214 C14.3187372,83.72445 21.3920858,83.5293214 26.1161858,82.4697857 C32.1670358,81.1119643 34.5110644,75.8229857 35.4848429,70.2214286 L35.5663062,69.7494917 C35.9275639,67.6217867 36.1715215,65.4537 34.4601072,63.7908857 C32.9382287,62.3118857 30.6053858,61.9284643 28.6019001,61.5736286 C23.9138429,60.7427786 18.4005287,60.2767071 13.6876144,61.1908286 Z M57.1876144,61.1659714 C54.4638929,61.5574714 50.7968429,61.9340571 48.9487144,64.2519857 C46.0248929,67.9196571 49.3079001,77.1261214 52.3491715,79.9194429 C56.1678501,83.4274071 61.7656787,83.3596714 66.5090429,82.5592714 C73.2471929,81.4226786 75.5297001,75.9242786 75.8062358,69.6 C75.9031787,67.3796357 76.0050929,64.7317286 74.3179144,63.0333643 C70.8553144,59.5476471 61.6146715,60.53025 57.1876144,61.1659714 Z M21.7661858,36.6642857 C12.3329622,39.4400829 7.04441865,49.7092521 6.85190008,59.0357143 C13.2038944,57.8564293 20.9981001,57.7176021 27.3590429,58.9139143 C32.0669858,59.79945 36.8569572,62.0167071 41.6519001,62.1093 C46.7880072,62.2081071 52.0745001,59.4837643 57.1876144,58.6870929 C63.6044858,57.6874007 70.5856144,58.4142857 77.0733287,58.4142857 L75.8304715,52.2 C73.3708572,52.3941032 70.9026638,52.6660248 68.4308827,52.956467 L67.0823127,53.1163704 C66.4078798,53.196884 65.7332476,53.2779733 65.0585173,53.3584353 L63.7089558,53.5181667 C63.2590784,53.5708941 62.8091874,53.6229863 62.3593128,53.6740869 L61.0097683,53.8240575 C51.1139096,54.8967998 41.2405144,55.3171064 31.7090429,51.2899179 C26.0459644,48.8972314 17.8393787,43.2160071 21.7661858,36.6642857 Z" id="Combined-Shape"></path>
            </g>
            <rect id="Rectangle" x="59" y="69" width="7" height="5.83333333" rx="1"></rect>
            <rect id="Rectangle-Copy-2" x="18" y="69" width="7" height="5.83333333" rx="1"></rect>
        </g>
    </g>
</svg>