<svg fill="currentColor" viewBox="3.80666 -81.3223 44 44" xmlns="http://www.w3.org/2000/svg"><path d="M26.06-37.73q4.57 0 8.59-1.75 4.01-1.75 7.07-4.8 3.06-3.06 4.81-7.09 1.75-4.04 1.75-8.6t-1.76-8.58q-1.76-4.02-4.82-7.09 -3.07-3.08-7.09-4.82 -4.03-1.75-8.61-1.75 -4.56 0-8.58 1.74 -4.02 1.74-7.08 4.81 -3.07 3.07-4.81 7.08 -1.75 4.01-1.75 8.57 0 4.55 1.74 8.59 1.74 4.03 4.81 7.08 3.07 3.05 7.08 4.79 4.01 1.74 8.57 1.74Zm-2.93-10.98q-.63 0-1.12-.27 -.5-.27-.97-.83l-6.19-7.55q-.31-.35-.46-.75 -.16-.4-.16-.81 0-.84.6-1.43 .6-.6 1.41-.6 .51 0 .94.22 .42.22.81.71l5 6.33 9.71-15.5q.7-1.14 1.76-1.14 .81 0 1.46.51 .64.51.64 1.375 0 .38-.18.78 -.18.39-.39.74l-10.92 16.99q-.39.55-.91.84 -.52.29-1.12.29Z" transform="translate(0 .01064) scale(.98984)"/></svg>