<svg viewBox="3.87725 -78.5848 42 42" xmlns="http://www.w3.org/2000/svg"><path d="M24.66-36.29q4.29 0 8.06-1.64 3.77-1.64 6.63-4.5 2.86-2.86 4.5-6.64 1.63-3.79 1.63-8.06 0-4.32-1.64-8.08t-4.51-6.63q-2.87-2.87-6.64-4.51 -3.78-1.64-8.07-1.64 -4.3 0-8.07 1.63 -3.78 1.63-6.63 4.5 -2.86 2.86-4.5 6.62 -1.64 3.75-1.64 8.07 0 4.27 1.62 8.05 1.62 3.78 4.49 6.63 2.86 2.85 6.63 4.49 3.77 1.63 8.06 1.63Zm-1.59-10.36q-.16 0-.3-.07 -.14-.07-.3-.24l-7.29-8.34q-.11-.13-.17-.27 -.06-.14-.06-.27 0-.31.2-.47 .2-.17.39-.17t.32.06q.12.06.23.21l6.89 7.84 11.77-18.16q.21-.33.55-.33 .21 0 .39.16 .18.16.18.41 0 .1-.04.22 -.04.11-.08.2L23.54-47.05q-.11.17-.27.24 -.17.07-.32.07Z" transform="scale(1.0082)"/></svg>