<svg xmlns="http://www.w3.org/2000/svg" viewBox="0 260 652 130"><path fill="currentColor" d="M21.5,320.5c0,23,16.8,41,40.4,41c20.2,0,31.4-13.1,31.4-13.1l-6.2-8.1c0,0-9.3,10.6-25.2,10.6 C45.7,351,33,337.3,33,320.2c0-17.7,12.4-29.5,28.6-29.5c8.1,0,19.3,3.4,19.3,9.9v4.4h10.3v-7.8c0-12.4-19.3-16.8-29.8-16.8 C38.6,280.7,21.5,297.8,21.5,320.5z M106.4,340.1c0,14.9,6.5,21.5,19.6,21.5c11.2,0,18.7-7.5,21.1-12.7h0.3c0,0,0,1.6,0,3.1v2.2 c0,4,2.5,6.2,7.2,6.2h10.6V351h-4.7c-1.6,0-2.5-0.6-2.5-2.5v-44.1h-10.9v26.1c0,11.2-6.8,21.1-18.7,21.1c-9,0-10.6-6.2-10.6-14 v-26.4c0-4.7-2.2-6.8-7.5-6.8H99.2v9.3h4.7c1.6,0,2.5,0.6,2.5,2.5V340.1z M176.6,353.1c0,5,2.2,7.2,7.2,7.2h10.9v-9.3H190 c-1.6,0-2.5-0.6-2.5-2.5v-59.4c0-5-2.2-7.2-7.2-7.2h-10.9v9.3h4.7c1.6,0,2.5,0.6,2.5,2.5V353.1z M207.7,339.8 c0,18.7,14.6,20.8,21.8,20.8c2.5,0,3.7-0.3,3.7-0.3v-9.6c0,0-0.9,0.3-2.5,0.3c-4,0-12.1-1.6-12.1-12.7v-25.8h13.7v-8.7h-13.7v-15.5 H208v15.5h-7.8v8.7h7.5V339.8z M272.1,332c0,17.1,13.7,29.5,30.8,29.5c17.1,0,30.8-12.4,30.8-29.5c0-16.8-13.7-29.2-30.8-29.2 C285.7,302.8,272.1,315.2,272.1,332z M283.3,332c0-11.5,8.7-19.9,19.6-19.9s19.6,8.4,19.6,19.9c0,11.8-8.7,20.2-19.6,20.2 S283.3,343.8,283.3,332z M347.3,360.3h10.9v-47.6h13.7V304h-13.7v-1.6c0-10.3,7.8-11.8,12.1-11.8c1.6,0,2.8,0.3,2.8,0.3v-9.3 c0,0-1.6-0.3-4-0.3c-7.2,0-21.8,2.2-21.8,20.8v1.9h-7.2v8.7h7.2V360.3z M407.3,360.3h9.9c5.3,0,7.2-2.2,7.5-7.2l3.1-41.3 c0.3-4.7,0.3-11.5,0.3-11.5h0.3c0,0,2.5,7.5,4.4,11.5L449,346h9.6l16.2-34.2c1.9-4.4,4-11.5,4-11.5h0.3c0,0,0,6.8,0.3,11.5l3.4,41.3 c0.3,5,2.2,7.2,7.2,7.2h9.9v-9.6h-3.7c-1.6,0-2.5-0.9-2.5-2.5l-5.3-66.2h-11.8L458,323.3c-1.9,4.4-4,9.9-4,9.9h-0.3 c0,0-2.2-5.6-4-9.9l-18.7-41.3h-11.8l-5.3,66.2c0,1.6-0.9,2.5-2.5,2.5h-3.7v9.6H407.3z M506.2,344.4c0,11.2,9.6,17.1,19.6,17.1 c13.7,0,18.3-11.2,18.3-11.2h0.3c0,0-0.3,1.6-0.3,3.4c0,4,2.2,6.5,7.2,6.5h10.3v-9.3h-4.7c-1.6,0-2.5-0.6-2.5-2.5v-23.9 c0-12.4-5-22.1-23.6-22.1c-5.6,0-19.9,1.2-19.9,10.6v5.6h10.3v-3.1c0-3.7,6.5-4.4,9.3-4.4c9,0,12.7,3.4,12.7,13.4v0.6h-2.5 C531,325.5,506.2,326.4,506.2,344.4z M517.4,343.8c0-10.3,14.9-10.9,23.3-10.9h2.8v1.9c0,8.4-5.9,17.7-15.2,17.7 C520.8,352.8,517.4,348.5,517.4,343.8z M567.7,332.3c0,16.8,12.4,29.2,30.5,29.2c15.2,0,23.3-9.6,23.3-9.6l-4.7-7.8 c0,0-7.2,7.8-17.7,7.8s-20.2-7.2-20.2-19.9c0-11.8,8.4-19.9,19.6-19.9c4,0,10.6,1.9,10.6,5.9v3.1h9.9v-5.9 c0-9.6-13.7-12.4-20.5-12.4C579.8,302.8,567.7,315.8,567.7,332.3z"/></svg>