<?xml version="1.0" encoding="UTF-8"?>
<svg width="208px" height="210px" viewBox="0 0 208 210" version="1.1" xmlns="http://www.w3.org/2000/svg" xmlns:xlink="http://www.w3.org/1999/xlink">
    <title>Group</title>
    <defs>
        <linearGradient x1="50%" y1="100%" x2="50%" y2="47.1613987%" id="linearGradient-1">
            <stop stop-color="#FFD586" offset="0%"></stop>
            <stop stop-color="#FFE3AD" offset="100%"></stop>
        </linearGradient>
        <filter x="-3.9%" y="-3.9%" width="107.8%" height="107.8%" filterUnits="objectBoundingBox" id="filter-2">
            <feOffset dx="1" dy="1" in="SourceAlpha" result="shadowOffsetOuter1"></feOffset>
            <feGaussianBlur stdDeviation="1" in="shadowOffsetOuter1" result="shadowBlurOuter1"></feGaussianBlur>
            <feColorMatrix values="0 0 0 0 0.804489357   0 0 0 0 0.804489357   0 0 0 0 0.804489357  0 0 0 0.63243007 0" type="matrix" in="shadowBlurOuter1" result="shadowMatrixOuter1"></feColorMatrix>
            <feMerge>
                <feMergeNode in="shadowMatrixOuter1"></feMergeNode>
                <feMergeNode in="SourceGraphic"></feMergeNode>
            </feMerge>
        </filter>
    </defs>
    <g id="AppIcon" stroke="none" stroke-width="1" fill="none" fill-rule="evenodd">
        <g id="Icon-Artwork-Lite" transform="translate(-24.000000, -24.000000)">
            <g id="Group" transform="translate(24.000000, 24.000000)">
                <path d="M178.206311,3.46897778 C167.8872,0 161.160711,0 137.191022,0 L70.8078222,0 C46.8381333,0 40.1128,0 29.7936889,3.46897778 C17.5933333,7.92826667 7.92826667,17.5933333 3.46897778,29.7925333 C0,40.1128 0,46.8381333 0,70.8078222 L0,137.191022 C0,161.160711 0,167.8872 3.46897778,178.206311 C7.92826667,190.405511 17.5933333,200.071733 29.7936889,204.529867 C40.1128,208 46.8381333,208 70.8078222,208 L137.191022,208 C161.160711,208 167.8872,208 178.206311,204.529867 C190.405511,200.071733 200.071733,190.405511 204.529867,178.206311 C208,167.8872 208,161.160711 208,137.191022 L208,70.8078222 C208,46.8381333 208,40.1128 204.529867,29.7925333 C200.071733,17.5933333 190.405511,7.92826667 178.206311,3.46897778" id="Squircle" fill="url(#linearGradient-1)"></path>
                <g transform="translate(21.000000, 21.000000)" id="Moon" filter="url(#filter-2)">
                    <ellipse fill="#FFFCF2" cx="82.7877238" cy="83" rx="82.7877238" ry="83"></ellipse>
                    <g id="Craters" transform="translate(17.972277, 11.385343)" fill="#E7B24D" fill-opacity="0.3">
                        <path d="M19.812889,66.363754 C19.812889,72.633535 15.3785273,77.7150681 9.90755009,77.7150681 C4.43657289,77.7150681 0,72.633535 0,66.363754 C0,60.0957465 4.43657289,55.0146568 9.90755009,55.0146568 C15.3785273,55.0146568 19.812889,60.0957465 19.812889,66.363754 Z" id="Path"></path>
                        <path d="M23.6139599,111.460864 C20.2971441,114.786185 14.0243819,113.887018 9.60372975,109.455031 C5.18307758,105.02127 4.28665281,98.7341974 7.60346867,95.4088769 C10.9185156,92.0853299 17.1912777,92.982723 21.6119299,97.4164837 C26.034351,101.848471 26.9290068,108.136874 23.6139599,111.460864 Z" id="Path"></path>
                        <path d="M117.682396,105.009742 C120.864328,101.819208 125.378293,101.171436 127.764189,103.565223 C130.151412,105.958567 129.507065,110.484107 126.325133,113.674197 C123.143201,116.864732 118.627467,117.510731 116.241571,115.118717 C113.854348,112.725373 114.500464,108.199833 117.682396,105.009742 Z" id="Path"></path>
                        <path d="M46.1360241,59.5548277 C46.870146,59.5548277 47.6060369,59.2413608 48.14513,58.7323651 C48.652824,58.1936632 48.9654891,57.4541119 48.9654891,56.7181076 C48.9654891,55.9785564 48.652824,55.2421087 48.14513,54.7020767 C47.0687127,53.6526055 45.2011243,53.6526055 44.1269182,54.7020767 C43.615244,55.2421087 43.3043478,55.9506237 43.3043478,56.7181076 C43.3043478,57.4541119 43.615244,58.1936632 44.1269182,58.7323651 C44.6624734,59.2413608 45.4001332,59.5548277 46.1360241,59.5548277 Z" id="Path"></path>
                        <path d="M28.1336743,88.7187754 C27.6220002,89.2574773 27.312873,89.9952551 27.312873,90.7330329 C27.312873,91.4708106 27.6220002,92.2085884 28.1336743,92.7472903 C28.6709985,93.2585029 29.4086584,93.5719698 30.1445492,93.5719698 C30.8786711,93.5719698 31.614562,93.2585029 32.1536552,92.7472903 C32.6613491,92.2085884 32.9740143,91.4708106 32.9740143,90.7330329 C32.9740143,89.9952551 32.6613491,89.2574773 32.1536552,88.7187754 C31.1046569,87.6675307 29.1822304,87.6675307 28.1336743,88.7187754 Z" id="Path"></path>
                        <path d="M101.29821,83.0427858 C100.786978,83.5814877 100.477851,84.3192655 100.477851,85.0570433 C100.477851,85.794821 100.786978,86.5330422 101.29821,87.0730743 C101.833765,87.5825134 102.571425,87.8959802 103.307316,87.8959802 C104.043207,87.8959802 104.777328,87.5825134 105.316422,87.0730743 C105.825884,86.5330422 106.136781,85.794821 106.136781,85.0570433 C106.136781,84.3192655 105.825884,83.5814877 105.316422,83.0427858 C104.241773,81.9933146 102.372858,81.9933146 101.29821,83.0427858 Z" id="Path"></path>
                        <path d="M126.375107,45.3667935 C127.110997,45.3667935 127.845119,45.0533267 128.384212,44.5443309 C128.894118,44.005629 129.206783,43.2660777 129.206783,42.5300735 C129.206783,41.7905222 128.894118,41.0540745 128.384212,40.5140425 C127.309564,39.4645713 125.3836,39.4920606 124.393862,40.5140425 C123.854769,41.0540745 123.545642,41.7625895 123.545642,42.5300735 C123.545642,43.2660777 123.854769,44.005629 124.366001,44.5443309 C124.901556,45.0533267 125.610028,45.3667935 126.375107,45.3667935 Z" id="Path"></path>
                        <path d="M64.1069746,5.63941106 C64.8428655,5.63941106 65.5791986,5.32771768 66.1178495,4.81694845 C66.6259857,4.27824653 66.9386509,3.54046875 66.9386509,2.80269097 C66.9386509,2.06491319 66.6259857,1.32713542 66.1178495,0.788433494 C65.0418745,-0.262811165 63.146867,-0.262811165 62.0978687,0.788433494 C61.5866368,1.29742922 61.2775096,2.0369805 61.2775096,2.80269097 C61.2775096,3.56840144 61.5866368,4.27824653 62.0978687,4.81694845 C62.6351929,5.32771768 63.3728527,5.63941106 64.1069746,5.63941106 Z" id="Path"></path>
                        <path d="M48.2078829,113.201541 C47.447385,113.989289 46.9842445,115.068147 46.9842445,116.147004 C46.9842445,117.225862 47.447385,118.30472 48.2078829,119.092467 C49.0045636,119.840017 50.101891,120.298402 51.1965869,120.298402 C52.2886513,120.298402 53.3833472,119.840017 54.1852908,119.092467 C54.9431572,118.30472 55.4056399,117.225862 55.4056399,116.147004 C55.4056399,115.068147 54.9405257,113.989289 54.1852908,113.201541 C52.5866664,111.666892 49.8065073,111.666892 48.2078829,113.201541 Z" id="Path"></path>
                        <path d="M102.743457,104.692008 C102.743457,113.311682 95.7728367,120.298402 87.1747656,120.298402 C78.5789056,120.298402 71.6082854,113.311682 71.6082854,104.692008 C71.6082854,96.0723337 78.5789056,89.0856136 87.1747656,89.0856136 C95.7728367,89.0856136 102.743457,96.0723337 102.743457,104.692008 Z" id="Path"></path>
                        <path d="M103.45016,55.8668256 C103.45016,60.5670553 99.6477621,64.3792027 94.9595535,64.3792027 C90.2691336,64.3792027 86.4667359,60.5670553 86.4667359,55.8668256 C86.4667359,51.164379 90.2691336,47.3522316 94.9595535,47.3522316 C99.6477621,47.3522316 103.45016,51.164379 103.45016,55.8668256 Z" id="Path"></path>
                        <path d="M81.0012868,31.2061576 C81.0012868,37.3257703 76.0506349,42.2891161 69.9466734,42.2891161 C63.839833,42.2891161 58.8891811,37.3257703 58.8891811,31.2061576 C58.8891811,25.0836586 63.839833,20.1203127 69.9466734,20.1203127 C76.0506349,20.1203127 81.0012868,25.0836586 81.0012868,31.2061576 Z" id="Path"></path>
                        <path d="M66.9386509,79.2953735 C66.9386509,85.4149861 61.987999,90.378332 55.8840375,90.378332 C49.7771971,90.378332 44.8265452,85.4149861 44.8265452,79.2953735 C44.8265452,73.1728745 49.7771971,68.2095286 55.8840375,68.2095286 C61.987999,68.2095286 66.9386509,73.1728745 66.9386509,79.2953735 Z" id="Path"></path>
                        <path d="M109.806458,18.4242426 C109.806458,21.7944514 106.581312,24.527878 102.604833,24.527878 C98.6264778,24.527878 95.4013321,21.7944514 95.4013321,18.4242426 C95.4013321,15.0524442 98.6264778,12.3190176 102.604833,12.3190176 C106.581312,12.3190176 109.806458,15.0524442 109.806458,18.4242426 Z" id="Path"></path>
                        <path d="M67.5538097,128.858054 C74.5089514,126.990998 81.2978101,129.788257 82.7178495,135.10877 C84.1396579,140.427509 79.6535539,146.253471 72.7001812,148.120528 C65.7450394,149.987584 58.9561807,147.188994 57.5343723,141.870255 C56.1143329,136.551516 60.5991102,130.725111 67.5538097,128.858054 Z" id="Path"></path>
                        <path d="M123.299313,55.6646461 C127.652744,56.3833587 130.404817,61.6848064 129.447805,67.5041173 C128.490793,73.3216546 124.185566,77.4556931 119.833903,76.735207 C115.480914,76.0164944 112.727073,70.7168202 113.684085,64.8975093 C114.641097,59.0781985 118.946324,54.94416 123.299313,55.6646461 Z" id="Path"></path>
                        <path d="M38.1841627,30.0158782 C34.8571752,33.3518397 29.8005789,33.6910224 26.8879723,30.7709476 C23.9771347,27.8526464 24.3141232,22.7835278 27.6411107,19.4475662 C30.9685403,16.1120481 36.0264634,15.7741955 38.937301,18.6924968 C41.8481386,21.6107981 41.5115923,26.6821335 38.1841627,30.0158782 Z" id="Path"></path>
                    </g>
                    <path d="M122.872638,10.2155223 C148.433647,24.3430278 165.749809,51.6198857 165.749809,82.9515204 C165.749809,128.791155 128.684482,165.95152 82.9620852,165.95152 C44.6491721,165.95152 12.4148558,139.859222 2.97362545,104.431971 C16.8415692,123.408027 39.2323992,135.731008 64.4940545,135.731008 C106.582107,135.731008 140.701216,101.524415 140.701216,59.3284435 C140.701216,40.7622163 134.095756,23.7427326 123.112413,10.5032797 Z" id="Darkside" fill-opacity="0.0700000003" fill="#A93232"></path>
                </g>
            </g>
        </g>
    </g>
</svg>