<?xml version="1.0" encoding="UTF-8"?>
<svg width="1270px" height="1270px" viewBox="0 0 1270 1270" version="1.1" xmlns="http://www.w3.org/2000/svg" xmlns:xlink="http://www.w3.org/1999/xlink">
    <title>m1</title>
    <defs>
        <linearGradient x1="50%" y1="0%" x2="50%" y2="100%" id="linearGradient-1">
            <stop stop-color="#E67E5D" offset="0%"></stop>
            <stop stop-color="#E9346E" offset="100%"></stop>
        </linearGradient>
        <filter x="-19.6%" y="-14.7%" width="141.5%" height="129.9%" filterUnits="objectBoundingBox" id="filter-2">
            <feGaussianBlur stdDeviation="60" in="SourceGraphic"></feGaussianBlur>
        </filter>
        <linearGradient x1="50%" y1="0%" x2="50%" y2="98.4402316%" id="linearGradient-3">
            <stop stop-color="#5DA0E6" offset="0%"></stop>
            <stop stop-color="#6B3AA4" offset="100%"></stop>
        </linearGradient>
        <filter x="-25.1%" y="-16.8%" width="149.7%" height="133.4%" filterUnits="objectBoundingBox" id="filter-4">
            <feGaussianBlur stdDeviation="60" in="SourceGraphic"></feGaussianBlur>
        </filter>
        <filter x="-10.5%" y="-10.5%" width="120.9%" height="120.9%" filterUnits="objectBoundingBox" id="filter-5">
            <feGaussianBlur stdDeviation="27" in="SourceGraphic"></feGaussianBlur>
        </filter>
        <linearGradient x1="12.226144%" y1="-20.9091907%" x2="63.6797348%" y2="60.5471407%" id="linearGradient-6">
            <stop stop-color="#2B2A2A" offset="0%"></stop>
            <stop stop-color="#000000" offset="100%"></stop>
        </linearGradient>
        <linearGradient x1="100%" y1="43.9394531%" x2="12.3311139%" y2="59.2673214%" id="linearGradient-7">
            <stop stop-color="#EEEEEE" offset="0%"></stop>
            <stop stop-color="#555C6B" offset="100%"></stop>
        </linearGradient>
    </defs>
    <g id="m1" stroke="none" stroke-width="1" fill="none" fill-rule="evenodd">
        <g id="SoC" transform="translate(172.000000, 188.000000)">
            <g id="Backdrop">
                <path d="M147.946658,16.0377336 C297.76642,31.951333 402.912697,41.9387551 463.385489,46 C542.119553,51.2876394 615.974286,51.2876394 684.949688,46 L613.817954,856 L139.295957,900.933466 C77.1657061,906.816709 22.0298769,861.219498 16.1466353,799.089248 C15.6688691,794.043775 15.5310773,788.971875 15.7341934,783.907904 C22.2596157,621.219897 25.1744317,508.917263 24.4786414,447 C23.8227652,388.634629 33.4813087,287.533156 24.4786414,146.933779 C24.4586552,146.621644 24.3609744,145.862133 24.185599,144.655247 L24.1855988,144.655247 C15.2111809,82.8957105 58.0019743,25.5545108 119.761511,16.580093 C129.097089,15.223519 138.565802,15.041315 147.946658,16.0377336 Z" id="left" fill-opacity="1.00" fill="url(#linearGradient-1)" filter="url(#filter-2)"></path>
                <path d="M406.379079,52.5001728 L852.984224,28.0410607 C888.277558,26.108159 918.455385,53.1521336 920.388286,88.4454681 C920.552272,91.4397242 920.50561,94.4418034 920.248645,97.4295165 C906.533235,256.897464 899.675531,373.420959 899.675531,447 C899.675531,521.293229 906.667009,645.561386 920.649965,819.80447 C923.477401,855.037426 897.207535,885.891469 861.974578,888.718904 C858.776899,888.975516 855.564453,888.991344 852.364401,888.766253 L442.844872,859.960712 C410.669403,857.697495 385.206205,831.844219 383.432378,799.638063 L345.994453,119.903148 C344.030848,84.6115033 371.065479,54.4253066 406.358214,52.4814801 C406.364808,52.481117 406.371402,52.4807548 406.379079,52.5001728 Z" id="right" fill="url(#linearGradient-3)" filter="url(#filter-4)"></path>
                <rect id="white-glow" fill-opacity="1.0" fill="#FFFFFF" filter="url(#filter-5)" x="70.7709775" y="69" width="774" height="774" rx="11"></rect>
            </g>
            <rect id="CPU" stroke-opacity="0.16643903" stroke="#FFFFFF" stroke-width="7" fill="url(#linearGradient-6)" x="54.2709775" y="52.5" width="807" height="807" rx="5"></rect>
            <path d="M345.908673,375.447266 C352.010235,375.447266 374.059063,376.001953 388.480938,396.802734 L388.480938,396.802734 L388.381602,396.874653 C386.365249,398.273211 365.322735,410.667148 365.322735,437.710938 C365.322735,469.605469 393.195782,480.976562 394.027813,481.253906 C393.889142,481.947266 389.590313,496.646484 379.328595,511.761719 C378.947247,512.310628 378.564936,512.859779 378.181352,513.408196 L378.181352,513.408196 L377.60498,514.230153 C377.316278,514.640734 377.026772,515.050631 376.73633,515.459431 L376.73633,515.459431 L376.154161,516.275448 C367.887999,527.811544 358.800824,538.248047 345.908673,538.248047 C339.107542,538.248047 334.651661,536.40747 330.164765,534.429538 L329.295308,534.045454 C324.358958,531.864445 319.200884,529.650391 310.686017,529.650391 C294.184063,529.650391 288.359845,538.525391 275.047345,538.525391 C261.596173,538.525391 252.305157,526.183594 241.627423,511.207031 C229.146954,493.457031 219.162579,466 219.162579,439.929688 C219.162579,398.189453 246.342267,376.001953 273.105938,376.001953 C287.25047,376.001953 299.037579,385.292969 308.051251,385.292969 C316.510235,385.292969 329.684063,375.447266 345.908673,375.447266 Z M455.947735,376.353516 L501.592267,491.800781 L502.260235,491.800781 L547.904767,376.353516 L586.758282,376.353516 L586.758282,537 L556.811017,537 L556.811017,428.34375 L555.809063,428.34375 L512.502423,537 L491.350079,537 L447.93211,428.34375 L447.041485,428.34375 L447.041485,537 L417.09422,537 L417.09422,376.353516 L455.947735,376.353516 Z M684.949688,376.353516 L684.949688,537 L651.662579,537 L651.662579,407.191406 L650.99461,407.191406 L610.02586,435.023438 L610.02586,405.1875 L651.551251,376.353516 L684.949688,376.353516 Z M349.236798,323.445312 C349.514142,324.693359 349.652813,326.21875 349.652813,327.744141 C349.652813,338.837891 344.93797,349.792969 338.28172,357.835938 C331.070782,366.572266 318.867657,373.089844 309.160626,373.089844 C308.051251,373.089844 306.941876,372.951172 306.248517,372.8125 C306.109845,372.257812 305.832501,370.59375 305.832501,368.929688 C305.832501,357.835938 311.518048,346.742188 317.61961,339.808594 C325.385235,330.65625 338.420392,323.861328 349.236798,323.445312 Z" id="Text-Mask" fill="url(#linearGradient-7)"></path>
        </g>
    </g>
</svg>