<?xml version="1.0" encoding="UTF-8"?>
<svg width="94px" height="138px" viewBox="0 0 94 138" version="1.1" xmlns="http://www.w3.org/2000/svg" xmlns:xlink="http://www.w3.org/1999/xlink">
    <g id="Page-1" stroke="none" stroke-width="1" fill="none" fill-rule="evenodd">
        <g id="Artboard" transform="translate(-187.000000, -7.000000)">
            <g id="png-clipart-software-developer-web-development-and" transform="translate(234.000000, 76.000000) scale(-1, 1) translate(-234.000000, -76.000000) translate(187.000000, 7.000000)">
                <g id="Group-2" fill-rule="nonzero">
                    <path d="M2.21470468,72.9298337 C3.12794773,71.6960027 3.71954777,70.7661591 5.18943774,71.2268234 L5.18943774,70.3753182 C6.90251215,72.8072169 8.63640969,77.4032159 8.70891881,80.5933799 C8.7535398,82.5394949 7.84773358,84.6192962 7.58372602,86.5539159 C7.19552336,89.3987946 7.28104693,92.6238703 7.45395329,95.4947199 C8.46313149,112.278312 17.5751107,130.337884 31.9620354,135.623603 C44.0178848,140.052707 59.4039479,138.601742 69.1461987,128.629339 C73.3000416,124.377774 76.102612,118.61053 78.5329689,112.950575 C81.2172937,106.69925 83.3914517,99.1276665 83.2706032,92.0886993 C83.2137114,88.7823048 82.6618984,85.2702719 80.3014477,83.1478953 C79.9195664,86.5901049 79.31458,90.0855335 78.3139542,93.365957 C77.6182385,95.647565 76.663721,97.8035761 75.4083837,99.7505426 C74.4787796,101.192567 73.3922583,102.409367 72.1205599,103.455867 C62.9171077,111.030005 52.9565858,100.437281 43.1172844,101.527634 C35.0884798,102.417031 26.8808194,109.699954 18.9475782,104.454683 C17.7368618,103.653842 16.6194777,102.606491 15.6657039,101.438651 C14.4456915,99.9446857 13.3521053,98.1956942 12.5853678,96.346225 C7.57554551,84.2578323 9.16814322,68.8724117 13.1167295,56.751236 C14.6412802,52.072641 18.0979201,44.5019088 23.4096778,44.8305898 C24.9000191,44.9225524 26.0430602,46.1721361 27.1280941,47.2105467 C28.9939954,48.9965787 30.8018895,50.8417903 32.7057186,52.5784351 C36.6676912,56.1926486 40.9475884,59.1942042 45.3483342,62.0407859 C47.8530594,63.6612002 50.6760811,65.535363 53.5288501,66.1177925 C52.6059392,68.4292032 53.5675216,71.1386926 56.1317415,71.079513 C57.8213899,71.0403438 59.2477744,69.5821412 60.9656828,69.5161496 C62.3396376,69.463782 63.7046683,70.1475406 65.0559407,70.3753182 L64.3122575,68.2465554 C67.9462658,68.0677393 71.099111,67.8991413 74.7238232,68.672308 C72.6206869,66.3357779 68.9803574,65.6720296 66.1714657,65.1023727 C65.172699,64.8997144 63.8478273,65.0457476 62.9699092,64.4028612 C62.0049801,63.6961119 61.5108026,62.1067776 60.9656828,61.0087617 C59.6043706,58.2656379 58.3066433,55.4067094 57.2472664,52.4937103 C61.6097125,57.0943926 66.2986355,61.8883665 71.3772485,65.4302021 C73.4855906,66.9003258 77.9108779,67.9549149 79.1740239,70.4660035 C80.5498379,73.2006123 78.2470227,77.5884183 78.8140812,80.5933799 C80.6264373,77.8081066 81.3492974,72.5181309 81.7888143,69.0980605 C82.4897357,70.9990458 82.6790031,73.0196675 82.9043392,75.0585965 C84.0492396,73.6885247 84.8524175,72.1128145 85.5072306,70.3753182 C86.487777,70.964134 87.0578102,71.5044141 87.7382804,72.5040811 C88.8776032,69.7899085 88.0008006,66.7581244 88.8411627,63.9890297 C90.2392872,59.3819611 92.3889037,55.2040512 93.3103273,50.3649475 C95.9749444,36.373015 90.6356704,24.0841354 82.1606559,14.175979 C84.428518,15.0599265 86.5509901,16.4024946 88.8538053,17.156247 C87.1745685,9.06107278 80.8097552,5.39662041 73.98014,5.23517504 C75.8241026,2.76487348 78.7847057,1.95994567 81.4169726,0.977649341 C76.8269595,-1.23264513 72.48199,0.819141659 68.0306738,2.09524984 C65.1816232,2.91201357 62.3437279,3.20556996 59.4151032,3.32422721 C52.6754736,3.59726233 46.1277142,1.65434048 39.398868,2.86760757 C21.641199,6.06922432 4.14530644,22.5105113 0.522453402,43.1271538 C-1.28915904,53.4363265 2.19016313,62.7330596 2.21470468,72.9298337 M16.3446868,68.2465554 C18.8787875,68.6965759 21.5359678,67.5840844 24.1533611,67.9421423 C26.2921941,68.2350601 28.4228467,68.6173859 30.4746688,69.3837405 C31.8040027,69.8805938 33.179073,70.8193782 34.5649268,71.0377892 C35.9645387,71.2579033 37.5906022,70.2386517 38.0427616,68.6569809 C38.941131,65.5123724 34.8583098,64.9473987 33.0775603,64.8571392 C27.1924227,64.5595381 21.7215168,65.3676165 16.3446868,68.2465554 Z" id="Shape" fill="#28211C"></path>
                    <path d="M34.4666667,109.457021 C39.7780397,116.639401 49.4108016,113.266245 55.3555556,109.956526 C53.4099048,108.86311 50.737246,109.457021 48.6412698,109.457021 L34.4666667,109.457021 Z" id="Path" fill-opacity="0.92" fill="#E9E1E4"></path>
                </g>
                <rect id="Rectangle" fill="#28211C" x="61" y="74" width="7" height="5.83333333" rx="1"></rect>
                <rect id="Rectangle-Copy" fill="#28211C" x="23" y="74" width="7" height="5.83333333" rx="1"></rect>
            </g>
        </g>
    </g>
</svg>