<?xml version="1.0" encoding="UTF-8"?>
<svg width="824px" height="824px" viewBox="0 0 824 824" version="1.1" xmlns="http://www.w3.org/2000/svg" xmlns:xlink="http://www.w3.org/1999/xlink">
    <title>icon</title>
    <defs>
        <filter x="-36.4%" y="-36.4%" width="172.7%" height="172.7%" filterUnits="objectBoundingBox" id="filter-1">
            <feOffset dx="0" dy="27" in="SourceAlpha" result="shadowOffsetOuter1"></feOffset>
            <feGaussianBlur stdDeviation="30" in="shadowOffsetOuter1" result="shadowBlurOuter1"></feGaussianBlur>
            <feColorMatrix values="0 0 0 0 0.0553431636   0 0 0 0 0.0468205106   0 0 0 0 0.0687273551  0 0 0 0.283599213 0" type="matrix" in="shadowBlurOuter1" result="shadowMatrixOuter1"></feColorMatrix>
            <feMerge>
                <feMergeNode in="shadowMatrixOuter1"></feMergeNode>
                <feMergeNode in="SourceGraphic"></feMergeNode>
            </feMerge>
        </filter>
    </defs>
    <g id="icon" stroke="none" stroke-width="1" fill="none" fill-rule="evenodd">
        <path d="M243.569094,-9.84048292e-15 L580.430906,9.84048292e-15 C665.125186,-5.71760396e-15 695.837379,8.81843306 726.800342,25.3776069 C757.763305,41.9367807 782.063219,66.2366952 798.622393,97.1996582 C815.181567,128.162621 824,158.874814 824,243.569094 L824,580.430906 C824,665.125186 815.181567,695.837379 798.622393,726.800342 C782.063219,757.763305 757.763305,782.063219 726.800342,798.622393 C695.837379,815.181567 665.125186,824 580.430906,824 L243.569094,824 C158.874814,824 128.162621,815.181567 97.1996582,798.622393 C66.2366952,782.063219 41.9367807,757.763305 25.3776069,726.800342 C8.81843306,695.837379 3.81173598e-15,665.125186 -6.56032195e-15,580.430906 L6.56032195e-15,243.569094 C-3.81173598e-15,158.874814 8.81843306,128.162621 25.3776069,97.1996582 C41.9367807,66.2366952 66.2366952,41.9367807 97.1996582,25.3776069 C128.162621,8.81843306 158.874814,5.71760396e-15 243.569094,-9.84048292e-15 Z" id="Rectangle" fill="#D8D8D8"></path>
        <g transform="translate(59.000000, 59.000000)">
            <g id="marks" opacity="0.482724144" transform="translate(41.000000, 41.000000)" fill="#000000" fill-rule="nonzero">
                <g id="top">
                    <path d="M45.5978914,166.097812 L87.8453191,189.223085 C88.8083785,189.748953 89.8564625,189.994139 90.8909565,189.994139 C92.997404,189.994139 95.0459199,188.95854 96.1723205,187.10348 C97.8567816,184.338606 96.8563149,180.802752 93.9399914,179.202566 L51.6925637,156.077293 C48.7830875,154.477107 45.0432284,155.432057 43.3587673,158.19689 C41.6878962,160.961764 42.6849828,164.497618 45.5978914,166.097804 L45.5978914,166.097812 Z" id="Path"></path>
                    <path d="M64.1730851,311.951314 C64.1730851,308.593569 61.2974892,305.86734 57.7557766,305.86734 L6.41730851,305.86734 C2.87559594,305.86734 0,308.593569 0,311.951314 C0,315.30906 2.87559594,318.035289 6.41730851,318.035289 L57.7557766,318.035289 C61.2974892,318.035289 64.1730851,315.30906 64.1730851,311.951314 Z" id="Path"></path>
                    <path d="M76.0124645,220.690333 L59.2484761,214.906577 C56.9436109,214.116054 54.3774316,215.241664 53.5286229,217.433882 C52.6873331,219.628449 53.8820691,222.054266 56.1943959,222.856629 L72.9583843,228.640385 C73.4611701,228.815006 73.9789173,228.897598 74.48415,228.897598 C76.3061481,228.897598 78.0186122,227.833358 78.6781738,226.115424 C79.5194636,223.918501 78.3247276,221.492684 76.0124008,220.690321 L76.0124645,220.690333 Z" id="Path"></path>
                    <path d="M44.3742473,268.207574 L62.4951609,271.235167 C62.7672703,271.281408 63.0342472,271.303315 63.3012504,271.303315 C65.4909539,271.303315 67.4342829,269.813879 67.8244471,267.698913 C68.2659891,265.326009 66.5948089,263.062635 64.0944593,262.646446 L45.970917,259.618853 C43.4731304,259.200246 41.085749,260.78219 40.6441938,263.155094 C40.2026518,265.527998 41.871269,267.788942 44.3741815,268.207562 L44.3742473,268.207574 Z" id="Path"></path>
                    <path d="M429.67901,59.6293278 L469.947138,83.8912769 C470.865078,84.4429936 471.864059,84.7002309 472.850087,84.7002309 C474.857847,84.7002309 476.81039,83.6137289 477.884018,81.6674873 C479.489562,78.7667113 478.535967,75.0570593 475.756274,73.3782191 L435.488146,49.11627 C432.714979,47.4374298 429.150333,48.4393183 427.544789,51.340051 C425.952199,54.2408269 426.902572,57.9504789 429.67901,59.6293192 L429.67901,59.6293278 Z" id="Path" transform="translate(452.718456, 66.501068) rotate(90.000000) translate(-452.718456, -66.501068) "></path>
                    <path d="M198.069708,51.3370338 C196.464067,48.4360819 192.909003,47.440935 190.125869,49.113118 L149.855298,73.376539 C147.075403,75.0521015 146.121784,78.7654448 147.727425,81.6663101 C148.801119,83.6126697 150.757018,84.6992377 152.761661,84.6992377 C153.747749,84.6992377 154.746791,84.4385966 155.664786,83.8902346 L195.935358,59.6268136 C198.72173,57.9478715 199.67211,54.2379078 198.069708,51.3370425 L198.069708,51.3370338 Z" id="Path" transform="translate(172.897731, 66.500468) rotate(90.000000) translate(-172.897731, -66.500468) "></path>
                    <path d="M337.150839,30.5832823 C337.150839,27.0604934 334.409965,24.2002621 331.034182,24.2002621 L282.10093,24.2002621 C278.725148,24.2002621 275.984274,27.0604934 275.984274,30.5832823 C275.984274,34.1060712 278.725148,36.9663025 282.10093,36.9663025 L331.034182,36.9663025 C334.409965,36.9663025 337.150839,34.1060712 337.150839,30.5832823 Z" id="Path" transform="translate(306.567556, 30.583282) rotate(90.000000) translate(-306.567556, -30.583282) "></path>
                    <path d="M410.620319,61.8676478 L394.641726,55.7996026 C392.444845,54.9702232 389.998891,56.1511603 389.189849,58.4511321 C388.387974,60.7535694 389.526737,63.2986219 391.73073,64.1404236 L407.709323,70.2084689 C408.188553,70.3916726 408.682044,70.4783246 409.163606,70.4783246 C410.900243,70.4783246 412.532478,69.3617743 413.161139,67.5593984 C413.963015,65.2544894 412.824252,62.7094368 410.620258,61.8676351 L410.620319,61.8676478 Z" id="Path" transform="translate(401.175494, 63.006442) rotate(90.000000) translate(-401.175494, -63.006442) "></path>
                    <path d="M255.827683,57.8628863 C256.079703,57.8628863 256.334171,57.8398931 256.593563,57.7913758 L273.867978,54.6149744 C276.251181,54.1757925 277.844076,51.8037082 277.423208,49.314174 C277.002353,46.8246399 274.734142,45.1572808 272.343611,45.6041236 L255.071701,48.780525 C252.686055,49.2197069 251.095604,51.5917912 251.516471,54.0813254 C251.890835,56.3027277 253.740635,57.8628863 255.827746,57.8628863 L255.827683,57.8628863 Z" id="Path" transform="translate(264.469801, 51.697287) rotate(90.000000) translate(-264.469801, -51.697287) "></path>
                    <path d="M228.663878,55.805558 L212.685286,61.8736029 C210.481298,62.7103976 209.34253,65.260457 210.144405,67.5628942 C210.773127,69.3627348 212.405361,70.4842919 214.139569,70.4842919 C214.623543,70.4842919 215.117027,70.4001181 215.596221,70.2144363 L231.574813,64.1463913 C233.778801,63.3071248 234.917569,60.7595372 234.115694,58.4546283 C233.313819,56.1521911 230.870173,54.9663042 228.663817,55.8055706 L228.663878,55.805558 Z" id="Path" transform="translate(222.130049, 63.010150) rotate(90.000000) translate(-222.130049, -63.010150) "></path>
                    <path d="M345.980057,54.610108 L363.252003,57.786516 C363.511364,57.8350301 363.765833,57.8580136 364.020327,57.8580136 C366.107442,57.8580136 367.959726,56.2953678 368.331611,54.0764448 C368.752467,51.5869055 367.159582,49.2122801 364.776374,48.7756335 L347.501923,45.5992256 C345.121158,45.1600428 342.845626,46.8197443 342.424758,49.3092836 C342.003902,51.7988229 343.594344,54.1708991 345.979995,54.610095 L345.980057,54.610108 Z" id="Path" transform="translate(355.378146, 51.693395) rotate(90.000000) translate(-355.378146, -51.693395) "></path>
                    <path d="M131.867432,109.239827 C132.12138,109.234488 132.378262,109.206355 132.640625,109.152847 L150.111757,105.643495 C152.522119,105.158389 154.175388,102.777225 153.801872,100.322496 C153.428368,97.867768 151.17667,96.2658035 148.758767,96.7586462 L131.29016,100.267945 C128.877337,100.753103 127.226529,103.134215 127.600045,105.588944 C127.93215,107.779314 129.764412,109.284057 131.867495,109.239839 L131.867432,109.239827 Z" id="Path" transform="translate(140.700928, 102.955168) rotate(60.000000) translate(-140.700928, -102.955168) "></path>
                    <path d="M116.622275,125.644371 L100.398143,131.987842 C98.1602908,132.862629 96.9610068,135.410296 97.7222474,137.671801 C98.3192189,139.439604 99.9411615,140.514917 101.68864,140.478175 C102.176317,140.467922 102.675288,140.374168 103.161921,140.180265 L119.386053,133.836794 C121.623955,132.959561 122.823189,130.41434 122.061999,128.150389 C121.300758,125.888884 118.862503,124.767102 116.622214,125.644385 L116.622275,125.644371 Z" id="Path" transform="translate(109.892113, 132.912470) rotate(60.000000) translate(-109.892113, -132.912470) "></path>
                    <path d="M473.759148,109.239827 C474.013096,109.234488 474.269979,109.206355 474.532341,109.152847 L492.003473,105.643495 C494.413835,105.158389 496.067105,102.777225 495.693588,100.322496 C495.320085,97.867768 493.068386,96.2658035 490.650484,96.7586462 L473.181876,100.267945 C470.769053,100.753103 469.118245,103.134215 469.491761,105.588944 C469.823866,107.779314 471.656128,109.284057 473.759211,109.239839 L473.759148,109.239827 Z" id="Path" transform="translate(482.592645, 102.955168) scale(-1, 1) rotate(60.000000) translate(-482.592645, -102.955168) "></path>
                    <path d="M520.131622,125.644371 L503.90749,131.987842 C501.669637,132.862629 500.470353,135.410296 501.231594,137.671801 C501.828566,139.439604 503.450508,140.514917 505.197987,140.478175 C505.685664,140.467922 506.184635,140.374168 506.671268,140.180265 L522.8954,133.836794 C525.133302,132.959561 526.332536,130.41434 525.571346,128.150389 C524.810105,125.888884 522.371849,124.767102 520.13156,125.644385 L520.131622,125.644371 Z" id="Path" transform="translate(513.401460, 132.912470) scale(-1, 1) rotate(60.000000) translate(-513.401460, -132.912470) "></path>
                    <path d="M527.824621,187.101894 C528.951004,188.957029 531.006284,189.992669 533.109303,189.992669 C534.143782,189.992669 535.19185,189.744245 536.151497,189.221584 L578.398293,166.095384 C581.318005,164.498354 582.315024,160.959054 580.633986,158.194152 C578.94955,155.429167 575.213144,154.480662 572.300314,156.07447 L530.053519,179.200671 C527.140602,180.800922 526.143582,184.337 527.824621,187.101903 L527.824621,187.101894 Z" id="Path"></path>
                    <path d="M617.582908,305.870699 L566.246176,305.870699 C562.704583,305.870699 559.829085,308.596986 559.829085,311.954803 C559.829085,315.31262 562.704583,318.038907 566.246176,318.038907 L617.582908,318.038907 C621.124501,318.038907 624,315.31262 624,311.954803 C624,308.596986 621.124501,305.870699 617.582908,305.870699 Z" id="Path"></path>
                    <path d="M560.702063,271.308471 C560.966484,271.308471 561.236044,271.286552 561.508194,271.240303 L579.630055,268.212385 C582.133099,267.793733 583.804379,265.532534 583.362801,263.159375 C582.921242,260.786217 580.53628,259.20409 578.033236,259.622754 L559.911375,262.650672 C557.408332,263.069324 555.737051,265.330523 556.17863,267.703682 C556.568847,269.821243 558.512245,271.308471 560.702063,271.308471 L560.702063,271.308471 Z" id="Path"></path>
                    <path d="M567.804903,222.848897 C570.117151,222.048932 571.311856,219.620641 570.470593,217.423665 C569.629329,215.233757 567.0682,214.103402 564.750918,214.898656 L547.987455,220.68255 C545.675207,221.48016 544.480502,223.910806 545.321765,226.105426 C545.98137,227.820985 547.69378,228.890022 549.515658,228.890022 C550.020919,228.890022 550.538644,228.80979 551.041376,228.632803 L567.804903,222.848897 Z" id="Path"></path>
                </g>
                <g id="bottom-incomplete" transform="translate(40.577507, 346.200042)">
                    <path d="M55.600913,78.7056173 C53.9163497,75.9405755 50.1865439,74.9920514 47.266611,76.5858923 L5.0166202,99.7125677 C2.10008493,101.30963 1.09959233,104.849002 2.78415563,107.613962 C3.91062458,109.469134 5.96266245,110.504796 8.06584008,110.504796 C9.10039683,110.504796 10.1485444,110.256366 11.1116623,109.733695 L53.361653,86.6070194 C56.2849837,85.0067361 57.2820786,81.4705848 55.600913,78.7056256 L55.600913,78.7056173 Z" id="Path"></path>
                    <path d="M4.59395312,11.7534788 C4.85835993,11.7534788 5.12533629,11.7315629 5.39747801,11.6853186 L23.5209829,8.65773215 C26.0213273,8.239126 27.6925172,5.97817427 27.2509629,3.60527524 C26.8094218,1.2323762 24.4297211,-0.356866785 21.9216878,0.0690413645 L3.80081156,3.09662776 C1.29790415,3.51523392 -0.370722704,5.77618565 0.0708315397,8.14908468 C0.463597292,10.2664139 2.40431987,11.7534788 4.59401884,11.7534788 L4.59395312,11.7534788 Z" id="Path"></path>
                    <path d="M32.384766,39.3658113 L15.6207784,45.1495673 C13.3084581,45.947158 12.1137157,48.3777467 12.9550055,50.5723142 C13.6146307,52.287832 15.3270948,53.356844 17.146544,53.356844 C17.6543063,53.356844 18.1720471,53.2766137 18.6747947,53.0996311 L35.4387824,47.3158751 C37.7511027,46.5159284 38.945845,44.0876957 38.1045552,41.8907722 C37.2632655,39.6962046 34.6995076,38.5658767 32.3847023,39.3658234 L32.384766,39.3658113 Z" id="Path"></path>
                    <path d="M537.824583,99.7127992 L495.577794,76.586602 C492.664877,74.992794 488.931957,75.9348892 487.244124,78.7062832 C485.563086,81.4712678 486.56014,85.0072634 489.479817,86.6075136 L531.726606,109.733711 C532.686253,110.2596 533.734321,110.504796 534.7688,110.504796 C536.878613,110.504796 538.927098,109.469155 540.053481,107.614021 C541.734519,104.849037 540.737465,101.313041 537.824583,99.7127909 L537.824583,99.7127992 Z" id="Path"></path>
                    <path d="M504.738552,41.8984317 C503.897291,44.0954021 505.091986,46.5212702 507.404235,47.3236504 L524.167657,53.1075298 C524.670425,53.2797981 525.188155,53.3647482 525.695856,53.3647482 C527.515307,53.3647482 529.227714,52.2981298 529.887253,50.580159 C530.728514,48.3855446 529.533818,45.9596765 527.22157,45.1572963 L510.458148,39.3734169 C508.145906,38.5781652 505.584784,39.7061492 504.738488,41.8984196 L504.738552,41.8984317 Z" id="Path"></path>
                    <path d="M539.049745,3.10531282 L520.929444,0.0776557013 C518.426617,-0.353128431 516.036753,1.24101772 515.600339,3.61397218 C515.158811,5.98692664 516.829935,8.25034863 519.3302,8.66654712 L537.45313,11.6942042 C537.72523,11.7404465 537.989635,11.7623536 538.256629,11.7623536 C540.446258,11.7623536 542.389522,10.2728864 542.779673,8.1578753 C543.2212,5.78492084 541.552639,3.52392876 539.049811,3.10530036 L539.049745,3.10531282 Z" id="Path"></path>
                    <path d="M406.067217,162.813105 C404.802018,160.704822 401.998115,159.987341 399.807705,161.198742 C397.617229,162.41505 396.865805,165.108086 398.128451,167.216369 L416.449485,197.722181 C417.298076,199.135063 418.839267,199.923813 420.418868,199.923813 C421.195876,199.923813 421.983091,199.732152 422.706445,199.334091 C424.896921,198.120237 425.648345,195.424747 424.383147,193.318917 L406.067217,162.813105 Z" id="Path"></path>
                    <path d="M142.230684,161.200338 C140.04807,159.986534 137.239243,160.70401 135.971575,162.814634 L117.651721,193.31919 C116.389155,195.424932 117.140564,198.115405 119.330866,199.334115 C120.051621,199.737072 120.841338,199.923813 121.618296,199.923813 C123.200346,199.923813 124.738887,199.135096 125.584872,197.722272 L143.904726,167.217716 C145.172395,165.10952 144.420993,162.416595 142.230684,161.200338 Z" id="Path"></path>
                    <path d="M79.7702623,110.998253 C78.4127647,109.50018 75.9949907,109.306451 74.374531,110.561475 L62.6361858,119.668607 C61.0136465,120.925594 60.8040977,123.158865 62.1637405,124.656988 C62.9205023,125.490999 64.0086347,125.921868 65.0989015,125.921868 C65.9711367,125.921868 66.8433173,125.64913 67.5616062,125.093777 L79.2977623,115.986644 C80.9203016,114.731631 81.1277161,112.496386 79.7702076,110.998263 L79.7702623,110.998253 Z" id="Path"></path>
                    <path d="M438.700113,139.341277 C437.57232,138.054965 435.563661,137.888445 434.217402,138.965745 C432.871189,140.046474 432.695325,141.96659 433.824901,143.254642 L442.008845,152.585083 C442.637554,153.302147 443.541561,153.672598 444.447342,153.672598 C445.170166,153.672598 445.896582,153.438103 446.491555,152.960623 C447.839542,151.878198 448.015406,149.959779 446.884057,148.67003 L438.700113,139.341277 Z" id="Path"></path>
                    <path d="M468.472405,110.562256 C466.854245,109.305332 464.43658,109.500974 463.074907,110.999012 C461.715367,112.49701 461.926981,114.730219 463.54732,115.987143 L475.284866,125.093818 C476.000972,125.651147 476.877416,125.921868 477.745269,125.921868 C478.835462,125.921868 479.92352,125.491041 480.68023,124.657052 C482.041904,123.159054 481.83029,120.925845 480.209951,119.668921 L468.472405,110.562256 Z" id="Path"></path>
                    <path d="M108.627576,138.967501 C107.283137,137.888594 105.276209,138.053398 104.144871,139.342989 L95.9609354,148.670609 C94.8295972,149.960165 95.0054155,151.878406 96.3534369,152.960706 C96.948409,153.439853 97.6765974,153.672598 98.3976476,153.672598 C99.3034273,153.672598 100.207434,153.302207 100.836142,152.585209 L109.020077,143.255849 C110.149642,141.971382 109.973824,140.048052 108.627576,138.967449 L108.627576,138.967501 Z" id="Path"></path>
                </g>
            </g>
        </g>
    </g>
</svg>