<?xml version="1.0" encoding="UTF-8"?>
<!--Generator: Apple Native CoreSVG 232.5-->
<!DOCTYPE svg
PUBLIC "-//W3C//DTD SVG 1.1//EN"
       "http://www.w3.org/Graphics/SVG/1.1/DTD/svg11.dtd">
<svg version="1.1" xmlns="http://www.w3.org/2000/svg" xmlns:xlink="http://www.w3.org/1999/xlink" width="147.106" height="151.461" viewBox="0 0 147.106 151.461" xml:space="preserve">
 <g>
  <rect height="151.461" opacity="0" width="147.106" x="0" y="0"/>
  <path d="M94.9305 106.537C96.0639 107.921 95.794 109.753 94.5783 110.949L79.1494 125.792C76.5927 128.267 75.1866 129.011 73.5731 129.011C71.9794 129.011 70.5733 128.224 67.9967 125.792L52.5906 110.949C51.4117 109.812 51.0226 108.31 51.8265 107.091C56.3659 100.998 64.5503 96.3471 73.5731 96.3471C82.3856 96.3471 90.4109 100.79 94.9305 106.537Z" fill="currentColor" fill-opacity="0.425"/>
  <path d="M72.3747 79.783C60.5531 80.0811 48.9114 85.7027 41.4026 93.7671C39.8942 95.4203 37.7694 95.588 36.1361 94.037L26.2101 84.3495C24.929 83.0456 24.8068 81.4379 25.963 80.0942C32.6216 72.1179 42.9202 65.6831 54.9045 62.3226ZM121.143 80.0942C122.3 81.4379 122.135 83.1309 120.896 84.3495L117.321 87.824L91.6646 62.1633C103.882 65.4883 114.397 71.9969 121.143 80.0942Z" fill="currentColor" fill-opacity="0.425"/>
  <path d="M41.789 49.2145C31.8512 53.4218 22.8359 59.7226 15.0221 67.9886C13.5961 69.5168 11.3691 69.5367 9.88059 68.071L1.03697 59.0626C-0.264028 57.7389-0.303778 55.9465 0.809717 54.6654C7.3261 46.5805 16.2689 39.5187 26.667 34.101ZM146.297 54.6654C147.41 55.9465 147.413 57.7389 146.069 59.0626L137.226 67.9261C135.757 69.3918 133.613 69.4543 132.229 68.071C116.82 51.6194 96.4651 42.912 73.5532 42.912C73.1865 42.912 72.8206 42.9142 72.469 42.9641L54.0109 24.5025C60.3843 23.1951 66.95 22.5124 73.5532 22.5124C102.732 22.5124 131.053 35.805 146.297 54.6654Z" fill="currentColor" fill-opacity="0.425"/>
  <path d="M126.4 122.514C128.414 124.508 131.698 124.469 133.61 122.514C135.561 120.477 135.584 117.318 133.61 115.364L27.7294 9.5035C25.7153 7.48938 22.4541 7.48938 20.4569 9.46375C18.5252 11.3756 18.5252 14.8244 20.4569 16.6737Z" fill="currentColor" fill-opacity="0.85"/>
 </g>
</svg>
