<?xml version="1.0" encoding="UTF-8"?>
<!--Generator: Apple Native CoreSVG 232.5-->
<!DOCTYPE svg
PUBLIC "-//W3C//DTD SVG 1.1//EN"
       "http://www.w3.org/Graphics/SVG/1.1/DTD/svg11.dtd">
<svg version="1.1" xmlns="http://www.w3.org/2000/svg" xmlns:xlink="http://www.w3.org/1999/xlink" width="147.106" height="106.561" viewBox="0 0 147.106 106.561" xml:space="preserve">
 <g>
  <rect height="106.561" opacity="0" width="147.106" x="0" y="0"/>
  <path d="M9.88059 45.6211C11.3691 47.0868 13.5961 47.067 15.0221 45.5387C30.5362 29.1268 50.7862 20.4621 73.5532 20.4621C96.4651 20.4621 116.82 29.1695 132.229 45.6211C133.613 47.0045 135.757 46.942 137.226 45.4762L146.069 36.6127C147.413 35.289 147.41 33.4966 146.297 32.2155C131.053 13.3551 102.732 0.0625 73.5532 0.0625C44.4169 0.0625 16.0111 13.3551 0.809717 32.2155C-0.303778 33.4966-0.264028 35.289 1.03697 36.6127Z" fill="currentColor" fill-opacity="0.85"/>
  <path d="M36.1361 71.5871C37.7694 73.1381 39.8942 72.9705 41.4026 71.3172C49.1609 62.9848 61.3314 57.2602 73.5532 57.3028C85.9198 57.2602 98.1499 63.1723 105.994 71.5445C107.377 73.1153 109.337 73.0131 110.97 71.5445L120.896 61.8996C122.135 60.681 122.3 58.988 121.143 57.6444C111.229 45.744 93.1724 37.2751 73.5532 37.2751C53.9339 37.2751 35.8973 45.744 25.963 57.6444C24.8068 58.988 24.929 60.5957 26.2101 61.8996Z" fill="currentColor" fill-opacity="0.85"/>
  <path d="M73.5731 106.561C75.1866 106.561 76.5927 105.817 79.1494 103.342L94.5783 88.4987C95.794 87.3028 96.0639 85.4707 94.9305 84.0873C90.4109 78.3405 82.3856 73.8972 73.5731 73.8972C64.5503 73.8972 56.3659 78.5479 51.8265 84.6412C51.0226 85.8598 51.4117 87.3625 52.5906 88.4987L67.9967 103.342C70.5733 105.774 71.9794 106.561 73.5731 106.561Z" fill="currentColor" fill-opacity="0.85"/>
 </g>
</svg>
