<svg fill="currentColor" viewBox="3.80666 -81.3223 44 44" xmlns="http://www.w3.org/2000/svg"><path d="M26.06-37.73q4.57 0 8.59-1.75 4.01-1.75 7.07-4.8 3.06-3.06 4.81-7.09 1.75-4.04 1.75-8.6t-1.76-8.58q-1.76-4.02-4.82-7.09 -3.07-3.08-7.09-4.82 -4.03-1.75-8.61-1.75 -4.56 0-8.58 1.74 -4.02 1.74-7.08 4.81 -3.07 3.07-4.81 7.08 -1.75 4.01-1.75 8.57 0 4.55 1.74 8.59 1.74 4.03 4.81 7.08 3.07 3.05 7.08 4.79 4.01 1.74 8.57 1.74Zm0-4.43q-3.7 0-6.92-1.375 -3.23-1.375-5.67-3.82 -2.44-2.44-3.81-5.68 -1.37-3.24-1.37-6.93 0-3.68 1.36-6.91 1.36-3.24 3.79-5.68 2.42-2.44 5.65-3.82Q22.31-77.75 26-77.75q3.71 0 6.92 1.375t5.66 3.81q2.44 2.43 3.83 5.67 1.38 3.23 1.38 6.9 0 3.69-1.375 6.92t-3.82 5.67q-2.44 2.43-5.68 3.81 -3.24 1.375-6.93 1.375Zm-7.09-8.71q.85 0 1.39-.61l5.67-5.7 5.71 5.69q.58.6 1.39.6 .81 0 1.38-.59 .56-.59.56-1.4 0-.8-.59-1.375l-5.7-5.7 5.71-5.72q.58-.63.58-1.375 0-.84-.57-1.4 -.57-.56-1.39-.56 -.8 0-1.375.58l-5.76 5.71 -5.7-5.7q-.56-.56-1.375-.56 -.82 0-1.39.54t-.57 1.38q0 .79.58 1.35L23.21-60l-5.7 5.71q-.59.55-.59 1.35 0 .81.56 1.39 .56.58 1.38.58Z" transform="translate(0 .01064) scale(.98984)"/></svg>